<?xml version="1.0" encoding="UTF-8"?>
<svg xmlns="http://www.w3.org/2000/svg" xmlns:xlink="http://www.w3.org/1999/xlink" width="300px" height="50px" viewBox="0 0 300 50" version="1.1">
<defs>
<linearGradient id="linear0" gradientUnits="userSpaceOnUse" x1="0" y1="0" x2="1" y2="0" gradientTransform="matrix(20.498343,-56.318732,56.318732,20.498343,61.916901,50.640452)">
<stop offset="0" style="stop-color:rgb(93.333333%,19.215686%,14.117647%);stop-opacity:1;"/>
<stop offset="0.388342" style="stop-color:rgb(93.333333%,19.215686%,14.117647%);stop-opacity:1;"/>
<stop offset="0.8" style="stop-color:rgb(99.215686%,71.764706%,7.843137%);stop-opacity:1;"/>
<stop offset="1" style="stop-color:rgb(99.215686%,71.764706%,7.843137%);stop-opacity:1;"/>
</linearGradient>
</defs>
<g id="surface1">
<path style=" stroke:none;fill-rule:nonzero;fill:url(#linear0);" d="M 99.027344 4.585938 L 96.097656 9.140625 L 101.890625 18.148438 L 110.613281 4.585938 Z M 71.429688 4.621094 L 85.214844 26.058594 L 79.1875 35.433594 L 65.949219 14.859375 L 65.898438 14.769531 C 65.25 13.644531 64.484375 12.578125 63.628906 11.601562 C 59.796875 7.230469 54.242188 4.726562 48.386719 4.726562 C 37.285156 4.726562 28.25 13.625 28.25 24.566406 C 28.25 35.503906 37.285156 44.402344 48.386719 44.402344 L 63.199219 44.402344 L 57.042969 34.828125 L 48.386719 34.828125 C 42.640625 34.828125 37.964844 30.226562 37.964844 24.566406 C 37.964844 18.90625 42.640625 14.300781 48.386719 14.300781 C 51.414062 14.300781 54.605469 15.367188 56.273438 17.859375 C 57.238281 19.300781 73.390625 44.433594 73.390625 44.433594 L 84.988281 44.433594 L 91.011719 35.070312 L 97.015625 44.402344 L 108.601562 44.402344 L 83.015625 4.621094 Z M 71.429688 4.621094 "/>
<path style=" stroke:none;fill-rule:nonzero;fill:rgb(31.764706%,32.156863%,32.941176%);fill-opacity:1;" d="M 143.703125 20.152344 L 141.203125 28.488281 L 146.144531 28.488281 Z M 148.097656 34.628906 L 147.308594 32.167969 L 140.070312 32.167969 L 139.285156 34.628906 L 134.257812 34.628906 L 141.523438 14.359375 L 145.855469 14.359375 L 153.214844 34.628906 Z M 148.097656 34.628906 "/>
<path style=" stroke:none;fill-rule:nonzero;fill:rgb(31.764706%,32.156863%,32.941176%);fill-opacity:1;" d="M 173.179688 14.359375 L 178.386719 14.359375 L 172.339844 24.492188 L 178.386719 34.628906 L 173.179688 34.628906 L 169.636719 28.113281 L 166.085938 34.628906 L 160.914062 34.628906 L 166.960938 24.492188 L 160.914062 14.359375 L 166.085938 14.359375 L 169.636719 20.902344 Z M 173.179688 14.359375 "/>
<path style=" stroke:none;fill-rule:nonzero;fill:rgb(31.764706%,32.156863%,32.941176%);fill-opacity:1;" d="M 186.957031 14.359375 L 191.726562 14.359375 L 191.726562 34.628906 L 186.957031 34.628906 Z M 186.957031 14.359375 "/>
<path style=" stroke:none;fill-rule:nonzero;fill:rgb(31.764706%,32.156863%,32.941176%);fill-opacity:1;" d="M 209.621094 20.152344 L 207.121094 28.488281 L 212.0625 28.488281 Z M 214.011719 34.628906 L 213.226562 32.167969 L 205.988281 32.167969 L 205.199219 34.628906 L 200.171875 34.628906 L 207.441406 14.359375 L 211.773438 14.359375 L 219.128906 34.628906 Z M 214.011719 34.628906 "/>
<path style=" stroke:none;fill-rule:nonzero;fill:rgb(31.764706%,32.156863%,32.941176%);fill-opacity:1;" d="M 232.292969 18.414062 L 232.292969 30.574219 L 234.824219 30.574219 C 238.632812 30.574219 240.839844 27.617188 240.839844 24.492188 C 240.839844 21.367188 238.632812 18.414062 234.824219 18.414062 Z M 235.054688 14.359375 C 241.800781 14.359375 245.636719 19.3125 245.636719 24.492188 C 245.636719 29.675781 241.832031 34.628906 235.054688 34.628906 L 227.585938 34.628906 L 227.585938 14.359375 Z M 235.054688 14.359375 "/>
<path style=" stroke:none;fill-rule:nonzero;fill:rgb(31.764706%,32.156863%,32.941176%);fill-opacity:1;" d="M 270.5625 24.492188 C 270.5625 21.328125 268.40625 18.386719 264.898438 18.386719 C 261.363281 18.386719 259.238281 21.328125 259.238281 24.492188 C 259.238281 27.65625 261.363281 30.601562 264.898438 30.601562 C 268.40625 30.601562 270.5625 27.65625 270.5625 24.492188 M 254.648438 24.492188 C 254.648438 19.210938 258.464844 14.367188 264.898438 14.367188 C 271.308594 14.367188 275.121094 19.210938 275.121094 24.492188 C 275.121094 29.777344 271.308594 34.617188 264.898438 34.617188 C 258.464844 34.617188 254.648438 29.777344 254.648438 24.492188 "/>
<path style=" stroke:none;fill-rule:nonzero;fill:rgb(57.647059%,58.431373%,59.607843%);fill-opacity:1;" d="M 122.957031 44.433594 L 121.773438 44.433594 L 121.773438 4.585938 L 122.957031 4.585938 Z M 122.957031 44.433594 "/>
</g>
</svg>
