<?xml version="1.0" encoding="UTF-8"?>
<svg xmlns="http://www.w3.org/2000/svg" xmlns:xlink="http://www.w3.org/1999/xlink" width="420px" height="35px" viewBox="0 0 422 35" version="1.1">
<defs>
<linearGradient id="linear0" gradientUnits="userSpaceOnUse" x1="26.1885" y1="37.3917" x2="41.7928" y2="-5.4809" >
<stop offset="0" style="stop-color:rgb(93.333333%,19.215686%,14.117647%);stop-opacity:1;"/>
<stop offset="0.1345" style="stop-color:rgb(93.72549%,20.784314%,13.72549%);stop-opacity:1;"/>
<stop offset="0.274" style="stop-color:rgb(94.117647%,25.882353%,13.333333%);stop-opacity:1;"/>
<stop offset="0.4156" style="stop-color:rgb(94.901961%,34.117647%,12.156863%);stop-opacity:1;"/>
<stop offset="0.5589" style="stop-color:rgb(96.078431%,45.490196%,10.980392%);stop-opacity:1;"/>
<stop offset="0.7019" style="stop-color:rgb(98.039216%,60%,9.411765%);stop-opacity:1;"/>
<stop offset="0.8" style="stop-color:rgb(99.215686%,71.764706%,7.843137%);stop-opacity:1;"/>
</linearGradient>
</defs>
<g id="surface1">
<path style=" stroke:none;fill-rule:nonzero;fill:url(#linear0);" d="M 54.398438 2.300781 L 63.199219 2.300781 L 56.601562 12.601562 L 52.199219 5.699219 Z M 43.800781 32.699219 L 48.398438 25.601562 L 53 32.699219 L 61.800781 32.699219 L 42.300781 2.398438 L 33.5 2.398438 L 44 18.699219 L 39.398438 25.800781 L 29.300781 10.199219 L 29.300781 10.101562 C 28.800781 9.199219 28.199219 8.398438 27.601562 7.699219 C 24.699219 4.398438 20.5 2.5 16 2.5 C 7.398438 2.398438 0.601562 9.199219 0.601562 17.5 C 0.601562 25.800781 7.5 32.601562 15.898438 32.601562 L 27.199219 32.601562 L 22.5 25.300781 L 15.898438 25.300781 C 11.5 25.300781 8 21.800781 8 17.5 C 8 13.199219 11.601562 9.699219 15.898438 9.699219 C 18.199219 9.699219 20.601562 10.5 21.898438 12.398438 C 22.601562 13.5 34.898438 32.601562 34.898438 32.601562 L 43.800781 32.601562 Z M 43.800781 32.699219 "/>
<path style=" stroke:none;fill-rule:nonzero;fill:rgb(100%,100%,100%);fill-opacity:1;" d="M 91.800781 25.199219 L 91.199219 23.300781 L 85.699219 23.300781 L 85.101562 25.199219 L 81.300781 25.199219 L 86.800781 9.800781 L 90.101562 9.800781 L 95.699219 25.199219 Z M 88.398438 14.199219 L 86.5 20.5 L 90.300781 20.5 Z M 88.398438 14.199219 "/>
<path style=" stroke:none;fill-rule:nonzero;fill:rgb(100%,100%,100%);fill-opacity:1;" d="M 110.898438 9.800781 L 114.898438 9.800781 L 110.300781 17.5 L 114.898438 25.199219 L 110.898438 25.199219 L 108.199219 20.199219 L 105.5 25.199219 L 101.601562 25.199219 L 106.199219 17.5 L 101.601562 9.800781 L 105.5 9.800781 L 108.199219 14.800781 Z M 110.898438 9.800781 "/>
<path style=" stroke:none;fill-rule:nonzero;fill:rgb(100%,100%,100%);fill-opacity:1;" d="M 121.398438 9.800781 L 125 9.800781 L 125 25.199219 L 121.398438 25.199219 Z M 121.398438 9.800781 "/>
<path style=" stroke:none;fill-rule:nonzero;fill:rgb(100%,100%,100%);fill-opacity:1;" d="M 142 25.199219 L 141.398438 23.300781 L 135.898438 23.300781 L 135.300781 25.199219 L 131.5 25.199219 L 137 9.800781 L 140.300781 9.800781 L 145.898438 25.199219 Z M 138.601562 14.199219 L 136.699219 20.5 L 140.5 20.5 Z M 138.601562 14.199219 "/>
<path style=" stroke:none;fill-rule:nonzero;fill:rgb(100%,100%,100%);fill-opacity:1;" d="M 158 9.800781 C 163.101562 9.800781 166.101562 13.601562 166.101562 17.5 C 166.101562 21.398438 163.199219 25.199219 158 25.199219 L 152.300781 25.199219 L 152.300781 9.800781 Z M 155.898438 12.898438 L 155.898438 22.199219 L 157.800781 22.199219 C 160.699219 22.199219 162.398438 20 162.398438 17.601562 C 162.398438 15.199219 160.699219 13 157.800781 13 L 155.898438 13 Z M 155.898438 12.898438 "/>
<path style=" stroke:none;fill-rule:nonzero;fill:rgb(100%,100%,100%);fill-opacity:1;" d="M 172.898438 17.5 C 172.898438 13.5 175.800781 9.800781 180.699219 9.800781 C 185.601562 9.800781 188.5 13.5 188.5 17.5 C 188.5 21.5 185.601562 25.199219 180.699219 25.199219 C 175.800781 25.199219 172.898438 21.5 172.898438 17.5 Z M 185 17.5 C 185 15.101562 183.398438 12.898438 180.699219 12.898438 C 178 12.898438 176.398438 15.101562 176.398438 17.5 C 176.398438 19.898438 178 22.101562 180.699219 22.101562 C 183.398438 22.101562 185 19.898438 185 17.5 Z M 185 17.5 "/>
<path style=" stroke:none;fill-rule:nonzero;fill:rgb(100%,100%,100%);fill-opacity:1;" d="M 71.800781 2.300781 L 72.699219 2.300781 L 72.699219 32.601562 L 71.800781 32.601562 Z M 71.800781 2.300781 "/>
<path style=" stroke:none;fill-rule:nonzero;fill:rgb(100%,100%,100%);fill-opacity:1;" d="M 290.398438 3.800781 C 290.699219 3.800781 291 3.898438 291.398438 3.898438 C 293.101562 4.101562 294.699219 4.601562 296.199219 5.398438 C 297.300781 6 298.398438 6.800781 299.300781 7.699219 C 300.300781 8.699219 301.101562 9.699219 301.699219 10.898438 C 302.5 12.398438 303 14 303.199219 15.699219 C 303.5 18.199219 303.199219 20.5 302.199219 22.800781 C 301.800781 23.800781 301.199219 24.800781 300.5 25.699219 C 300.398438 25.800781 300.398438 25.898438 300.398438 26.101562 C 300.699219 27.300781 299.800781 28.398438 298.601562 28.398438 C 297.601562 28.398438 296.800781 27.5 296.800781 26.5 C 296.800781 25.5 297.601562 24.699219 298.601562 24.699219 C 298.800781 24.699219 298.898438 24.601562 299.101562 24.5 C 300.300781 22.800781 301.101562 21 301.300781 18.898438 C 301.699219 15.800781 300.898438 12.898438 299 10.398438 C 297.199219 8 294.800781 6.5 291.898438 5.898438 C 291.5 5.800781 291.101562 5.800781 290.699219 5.699219 C 290.601562 5.699219 290.5 5.699219 290.601562 5.800781 C 290.601562 5.800781 290.601562 5.898438 290.601562 5.898438 C 290.601562 8.199219 290.601562 10.601562 290.601562 12.898438 C 290.601562 13.101562 290.699219 13.199219 290.800781 13.199219 C 292.5 13.699219 293.699219 15.199219 293.898438 16.898438 C 294 17.398438 293.898438 17.300781 293.5 17.300781 C 293.101562 17.300781 292.699219 17.300781 292.199219 17.300781 C 292.101562 17.300781 292 17.300781 292 17.101562 C 291.898438 15.601562 290.5 14.5 289 14.898438 C 288.898438 14.898438 288.800781 14.898438 288.699219 15 C 288.699219 14.898438 288.699219 14.800781 288.699219 14.800781 C 288.699219 11.199219 288.699219 7.5 288.699219 3.898438 C 288.699219 3.800781 288.699219 3.601562 288.898438 3.601562 C 289.5 3.800781 290 3.800781 290.398438 3.800781 Z M 290.398438 3.800781 "/>
<path style=" stroke:none;fill-rule:nonzero;fill:rgb(100%,100%,100%);fill-opacity:1;" d="M 290.699219 19.699219 C 290.699219 19.800781 290.699219 19.898438 290.699219 19.898438 C 290.699219 23.5 290.699219 27.199219 290.699219 30.800781 C 290.699219 31 290.699219 31 290.5 31 C 286.898438 31.199219 283.800781 30.101562 281 27.898438 C 278.398438 25.699219 276.800781 22.898438 276.199219 19.601562 C 275.699219 16.199219 276.300781 13 278.199219 10 C 278.398438 9.699219 278.699219 9.300781 278.898438 9 C 279 9 279 8.898438 279 8.800781 C 278.800781 7.800781 279.398438 6.898438 280.398438 6.699219 C 281.398438 6.5 282.398438 7.199219 282.5 8.199219 C 282.699219 9.199219 282 10.101562 281 10.300781 C 280.800781 10.300781 280.699219 10.300781 280.5 10.300781 C 280.398438 10.300781 280.300781 10.300781 280.199219 10.398438 C 279.601562 11.199219 279.101562 12 278.699219 12.898438 C 278.101562 14.300781 277.800781 15.699219 277.800781 17.101562 C 277.699219 20.199219 278.601562 22.898438 280.601562 25.199219 C 282.5 27.5 285 28.800781 287.898438 29.300781 C 288.101562 29.300781 288.300781 29.300781 288.5 29.398438 C 288.699219 29.398438 288.699219 29.398438 288.699219 29.199219 C 288.699219 27.398438 288.699219 25.699219 288.699219 23.898438 C 288.699219 23.300781 288.699219 22.699219 288.699219 22 C 288.699219 21.898438 288.699219 21.800781 288.5 21.800781 C 286.601562 21.300781 285.398438 19.898438 285.199219 18 C 285.199219 17.601562 285.199219 17.601562 285.601562 17.601562 C 286.101562 17.601562 286.601562 17.601562 287 17.601562 C 287.199219 17.601562 287.199219 17.601562 287.199219 17.800781 C 287.300781 19.101562 288.398438 20 289.699219 20 C 289.898438 20 290.101562 19.898438 290.199219 19.898438 C 290.601562 19.800781 290.601562 19.800781 290.699219 19.699219 Z M 290.699219 19.699219 "/>
<path style=" stroke:none;fill-rule:nonzero;fill:rgb(100%,100%,100%);fill-opacity:1;" d="M 293 27.300781 C 293 26.199219 293 25.101562 293 24.101562 C 293 23.898438 293 23.898438 293.199219 23.800781 C 295.199219 22.601562 296.398438 20.898438 296.800781 18.601562 C 297 17.300781 296.800781 15.898438 296.300781 14.699219 C 296.101562 14.300781 295.800781 13.898438 295.601562 13.5 C 295.5 13.398438 295.398438 13.300781 295.300781 13.300781 C 294.199219 13.398438 293.300781 12.5 293.300781 11.398438 C 293.300781 10.699219 293.699219 10.101562 294.300781 9.800781 C 295 9.5 295.601562 9.5 296.199219 10 C 296.800781 10.5 297 11.101562 296.800781 11.800781 C 296.800781 11.898438 296.800781 12.101562 296.898438 12.199219 C 297.898438 13.601562 298.5 15.101562 298.699219 16.800781 C 298.898438 19.398438 298.101562 21.601562 296.398438 23.601562 C 296 24 295.601562 24.398438 295.101562 24.800781 C 295 24.898438 294.898438 25 294.898438 25.101562 C 294.898438 26.699219 294.898438 28.398438 294.898438 30 C 294.898438 30.199219 294.800781 30.300781 294.699219 30.300781 C 294.199219 30.5 293.699219 30.601562 293.199219 30.800781 C 293 30.898438 293 30.800781 293 30.601562 C 293 29.5 293 28.398438 293 27.300781 Z M 293 27.300781 "/>
<path style=" stroke:none;fill-rule:nonzero;fill:rgb(100%,100%,100%);fill-opacity:1;" d="M 286.5 7.699219 C 286.5 8.800781 286.5 9.898438 286.5 10.898438 C 286.5 11.101562 286.398438 11.101562 286.300781 11.199219 C 284.300781 12.398438 283.101562 14.101562 282.699219 16.5 C 282.398438 18.398438 282.898438 20.101562 284 21.601562 C 284.101562 21.699219 284.199219 21.800781 284.300781 21.699219 C 285.300781 21.601562 286.199219 22.300781 286.300781 23.300781 C 286.398438 24.300781 285.699219 25.199219 284.699219 25.300781 C 283.5 25.5 282.398438 24.398438 282.601562 23.199219 C 282.601562 23 282.601562 22.898438 282.5 22.699219 C 281.5 21.398438 280.898438 19.898438 280.800781 18.300781 C 280.601562 15.800781 281.199219 13.601562 282.800781 11.699219 C 283.199219 11.199219 283.699219 10.699219 284.300781 10.199219 C 284.398438 10.101562 284.5 10 284.5 9.898438 C 284.5 8.300781 284.5 6.601562 284.5 5 C 284.5 4.800781 284.601562 4.699219 284.699219 4.699219 C 285.199219 4.5 285.699219 4.398438 286.199219 4.199219 C 286.398438 4.101562 286.398438 4.101562 286.398438 4.398438 C 286.5 5.5 286.5 6.601562 286.5 7.699219 Z M 286.5 7.699219 "/>
<path style=" stroke:none;fill-rule:nonzero;fill:rgb(100%,100%,100%);fill-opacity:1;" d="M 405.101562 19.5 C 405.300781 19.101562 405.398438 18.800781 405.601562 18.5 C 406.699219 16.199219 407.800781 14 408.898438 11.699219 C 409 11.5 409.101562 11.398438 409.300781 11.398438 C 409.601562 11.398438 409.800781 11.398438 410.101562 11.398438 C 410.300781 11.398438 410.398438 11.5 410.398438 11.601562 C 410.398438 11.699219 410.398438 11.699219 410.398438 11.800781 C 410.398438 14.800781 410.398438 17.800781 410.398438 20.800781 C 410.398438 21.199219 410.398438 21.199219 410 21.199219 C 409.101562 21.199219 409.300781 21.300781 409.300781 20.5 C 409.300781 18.398438 409.300781 16.398438 409.300781 14.300781 C 409.300781 14.199219 409.300781 14.101562 409.300781 14 C 409.300781 14 409.300781 14 409.199219 14 C 409.101562 14.101562 409.101562 14.199219 409 14.300781 C 407.898438 16.5 406.800781 18.699219 405.699219 20.898438 C 405.5 21.199219 405.300781 21.300781 405 21.300781 C 404.699219 21.300781 404.5 21.199219 404.398438 20.898438 C 403.300781 18.699219 402.199219 16.398438 401.101562 14.199219 C 401.101562 14.101562 401 14 400.898438 13.898438 C 400.898438 14 400.898438 14.101562 400.898438 14.199219 C 400.898438 16.398438 400.898438 18.601562 400.898438 20.800781 C 400.898438 21.300781 400.898438 21.300781 400.5 21.300781 C 399.601562 21.300781 399.699219 21.398438 399.699219 20.601562 C 399.699219 17.699219 399.699219 14.800781 399.699219 11.898438 C 399.699219 11.5 399.699219 11.5 400.101562 11.5 C 400.800781 11.398438 401.199219 11.699219 401.5 12.300781 C 402.601562 14.699219 403.800781 17 405 19.398438 C 405 19.398438 405.101562 19.398438 405.101562 19.5 Z M 405.101562 19.5 "/>
<path style=" stroke:none;fill-rule:nonzero;fill:rgb(100%,100%,100%);fill-opacity:1;" d="M 397.199219 15.898438 C 397.699219 16.199219 398.101562 16.699219 398.300781 17.199219 C 399.199219 19.101562 397.800781 21.398438 395.601562 21.398438 C 393.898438 21.398438 392.199219 21.398438 390.5 21.398438 C 390.199219 21.398438 390.101562 21.300781 390.101562 21 C 390.101562 18 390.101562 14.898438 390.101562 11.898438 C 390.101562 11.5 390.101562 11.5 390.5 11.5 C 392.101562 11.5 393.699219 11.5 395.300781 11.5 C 396.300781 11.5 397.101562 11.898438 397.601562 12.898438 C 398.101562 13.800781 398 14.699219 397.398438 15.601562 C 397.398438 15.699219 397.300781 15.699219 397.300781 15.800781 C 397.300781 15.699219 397.199219 15.800781 397.199219 15.898438 Z M 393.699219 20.300781 C 394.300781 20.300781 394.898438 20.300781 395.601562 20.300781 C 395.800781 20.300781 395.898438 20.300781 396.101562 20.300781 C 397 20.101562 397.601562 19.199219 397.5 18.300781 C 397.398438 17.398438 396.601562 16.699219 395.601562 16.601562 C 394.300781 16.601562 393 16.601562 391.699219 16.601562 C 391.5 16.601562 391.398438 16.699219 391.398438 16.898438 C 391.398438 17.898438 391.398438 19 391.398438 20 C 391.398438 20.199219 391.5 20.300781 391.699219 20.300781 C 392.300781 20.199219 393 20.300781 393.699219 20.300781 Z M 393.601562 12.601562 C 392.898438 12.601562 392.300781 12.601562 391.601562 12.601562 C 391.398438 12.601562 391.300781 12.699219 391.300781 12.898438 C 391.300781 13.601562 391.300781 14.398438 391.300781 15.101562 C 391.300781 15.300781 391.398438 15.398438 391.601562 15.398438 C 392.898438 15.398438 394.101562 15.398438 395.398438 15.398438 C 396.199219 15.398438 396.800781 14.800781 396.800781 14 C 396.800781 13.199219 396.199219 12.601562 395.398438 12.601562 C 394.800781 12.601562 394.199219 12.601562 393.601562 12.601562 Z M 393.601562 12.601562 "/>
<path style=" stroke:none;fill-rule:nonzero;fill:rgb(100%,100%,100%);fill-opacity:1;" d="M 365.101562 16.398438 C 365.101562 19.300781 362.800781 21.601562 359.898438 21.601562 C 357 21.601562 354.699219 19.300781 354.699219 16.398438 C 354.699219 13.5 357 11.199219 359.898438 11.199219 C 362.800781 11.199219 365.101562 13.601562 365.101562 16.398438 Z M 363.898438 16.398438 C 363.898438 14.199219 362.101562 12.398438 359.898438 12.398438 C 357.699219 12.398438 355.898438 14.199219 355.898438 16.398438 C 355.898438 18.601562 357.699219 20.398438 359.800781 20.398438 C 362.398438 20.398438 363.898438 18.398438 363.898438 16.398438 Z M 363.898438 16.398438 "/>
<path style=" stroke:none;fill-rule:nonzero;fill:rgb(100%,100%,100%);fill-opacity:1;" d="M 411.601562 16.398438 C 411.601562 13.800781 413.601562 11.601562 416.199219 11.300781 C 418.300781 11.101562 420.300781 12.101562 421.398438 14 C 421.5 14.199219 421.5 14.398438 421.300781 14.398438 C 421.101562 14.5 421 14.5 420.800781 14.601562 C 420.601562 14.699219 420.5 14.699219 420.300781 14.5 C 419.199219 12.398438 416.5 11.800781 414.601562 13.101562 C 413.199219 14 412.601562 15.699219 413 17.300781 C 413.398438 18.898438 414.699219 20.101562 416.398438 20.300781 C 418.101562 20.5 419.398438 19.800781 420.300781 18.398438 C 420.398438 18.199219 420.601562 18.101562 420.800781 18.199219 C 420.898438 18.300781 421.101562 18.398438 421.300781 18.398438 C 421.5 18.5 421.601562 18.601562 421.398438 18.800781 C 420.5 20.300781 419.101562 21.199219 417.300781 21.398438 C 414.5 21.601562 412.101562 19.601562 411.699219 16.800781 C 411.601562 16.800781 411.601562 16.601562 411.601562 16.398438 Z M 411.601562 16.398438 "/>
<path style=" stroke:none;fill-rule:nonzero;fill:rgb(100%,100%,100%);fill-opacity:1;" d="M 380.101562 19 C 380.300781 19.199219 380.5 19.300781 380.800781 19.5 C 381 19.601562 381 19.800781 380.898438 19.898438 C 380.300781 20.699219 379.5 21.199219 378.398438 21.398438 C 376.800781 21.699219 375 20.898438 374.199219 19.5 C 373.199219 17.601562 374 15.199219 376.101562 14.398438 C 378.5 13.398438 381.101562 14.800781 381.5 17.199219 C 381.5 17.398438 381.601562 17.601562 381.601562 17.800781 C 381.601562 18.101562 381.601562 18.199219 381.199219 18.199219 C 379.601562 18.199219 378.101562 18.199219 376.5 18.199219 C 376.398438 18.199219 376.300781 18.199219 376.300781 18.199219 C 376.101562 18.199219 376 18.101562 376 17.898438 C 376 17 375.898438 17.101562 376.699219 17.101562 C 377.800781 17.101562 378.800781 17.101562 379.898438 17.101562 C 380.300781 17.101562 380.300781 17 380.101562 16.699219 C 379.601562 15.601562 378.398438 15 377.199219 15.199219 C 376 15.398438 375.101562 16.300781 375 17.5 C 374.800781 18.800781 375.898438 20.199219 377.300781 20.300781 C 378.398438 20.398438 379.300781 20.101562 380 19.101562 C 379.898438 19.101562 379.898438 19.101562 380.101562 19 C 380 19 380 19 380.101562 19 Z M 380.101562 19 "/>
<path style=" stroke:none;fill-rule:nonzero;fill:rgb(100%,100%,100%);fill-opacity:1;" d="M 366.199219 19 C 366.199219 17.5 366.199219 16 366.199219 14.601562 C 366.199219 14.300781 366.300781 14.199219 366.601562 14.199219 C 367.601562 14.199219 368.601562 14.199219 369.601562 14.300781 C 371.601562 14.5 372.898438 16.199219 372.800781 18.101562 C 372.699219 20 371.101562 21.398438 369.101562 21.398438 C 368.601562 21.398438 368.101562 21.398438 367.601562 21.398438 C 367.398438 21.398438 367.300781 21.5 367.300781 21.699219 C 367.300781 22.300781 367.300781 22.898438 367.300781 23.398438 C 367.300781 23.699219 367.199219 23.699219 367 23.699219 C 366.199219 23.699219 366.199219 23.699219 366.199219 22.898438 C 366.199219 21.601562 366.199219 20.300781 366.199219 19 Z M 367.398438 17.800781 C 367.398438 18.5 367.398438 19.300781 367.398438 20 C 367.398438 20.199219 367.5 20.300781 367.699219 20.300781 C 368.300781 20.300781 368.898438 20.300781 369.398438 20.199219 C 370.601562 20.101562 371.601562 19 371.5 17.699219 C 371.5 16.5 370.601562 15.5 369.300781 15.398438 C 368.800781 15.398438 368.199219 15.398438 367.699219 15.300781 C 367.398438 15.300781 367.398438 15.398438 367.398438 15.601562 C 367.398438 16.398438 367.398438 17.101562 367.398438 17.800781 Z M 367.398438 17.800781 "/>
<path style=" stroke:none;fill-rule:nonzero;fill:rgb(100%,100%,100%);fill-opacity:1;" d="M 383.601562 14.800781 C 383.800781 14.699219 384 14.601562 384.199219 14.5 C 386.101562 13.398438 388.5 14.601562 388.800781 16.699219 C 388.898438 17.300781 388.898438 17.898438 388.898438 18.5 C 388.898438 19.398438 388.898438 20.199219 388.898438 21.101562 C 388.898438 21.398438 388.800781 21.5 388.5 21.5 C 388.300781 21.5 388.101562 21.5 388 21.5 C 387.800781 21.5 387.699219 21.398438 387.699219 21.199219 C 387.699219 20.398438 387.699219 19.601562 387.699219 18.800781 C 387.699219 18.199219 387.699219 17.601562 387.601562 16.898438 C 387.5 15.898438 386.5 15.199219 385.601562 15.300781 C 384.5 15.398438 383.699219 16.101562 383.699219 17.199219 C 383.699219 18.5 383.699219 19.800781 383.699219 21.101562 C 383.699219 21.5 383.699219 21.5 383.300781 21.5 C 382.5 21.5 382.5 21.5 382.5 20.699219 C 382.5 18.699219 382.5 16.699219 382.5 14.601562 C 382.5 14.199219 382.5 14.199219 382.898438 14.199219 C 383.101562 14.199219 383.199219 14.199219 383.398438 14.199219 C 383.699219 14.199219 383.800781 14.300781 383.800781 14.601562 C 383.601562 14.601562 383.601562 14.699219 383.601562 14.800781 Z M 383.601562 14.800781 "/>
<path style=" stroke:none;fill-rule:nonzero;fill:rgb(100%,100%,100%);fill-opacity:1;" d="M 311.199219 21.398438 L 311.199219 12.699219 L 313.800781 12.699219 C 314.699219 12.699219 315.398438 12.898438 315.898438 13.300781 C 316.398438 13.699219 316.601562 14.300781 316.601562 15 C 316.601562 15.5 316.5 15.800781 316.199219 16.199219 C 316 16.5 315.601562 16.800781 315.199219 16.898438 C 315.699219 17 316.101562 17.300781 316.398438 17.699219 C 316.699219 18.101562 316.898438 18.5 316.898438 19 C 316.898438 19.800781 316.699219 20.398438 316.199219 20.800781 C 315.699219 21.199219 315 21.5 314.101562 21.5 L 311.199219 21.5 Z M 311.898438 16.601562 L 313.898438 16.601562 C 314.5 16.601562 315 16.398438 315.300781 16.199219 C 315.601562 15.898438 315.800781 15.5 315.800781 15 C 315.800781 14.398438 315.601562 14 315.300781 13.800781 C 315 13.601562 314.398438 13.398438 313.699219 13.398438 L 311.898438 13.398438 Z M 311.898438 17.199219 L 311.898438 20.800781 L 314.101562 20.800781 C 314.699219 20.800781 315.199219 20.601562 315.601562 20.300781 C 316 20 316.199219 19.5 316.199219 19 C 316.199219 18.5 316 18 315.699219 17.699219 C 315.300781 17.398438 314.898438 17.199219 314.199219 17.199219 Z M 311.898438 17.199219 "/>
<path style=" stroke:none;fill-rule:nonzero;fill:rgb(100%,100%,100%);fill-opacity:1;" d="M 322.699219 20.601562 C 322.300781 21.199219 321.601562 21.5 320.601562 21.5 C 319.898438 21.5 319.398438 21.300781 319 20.898438 C 318.601562 20.5 318.5 19.898438 318.398438 19.101562 L 318.398438 14.898438 L 319.101562 14.898438 L 319.101562 19 C 319.101562 20.199219 319.601562 20.898438 320.601562 20.898438 C 321.601562 20.898438 322.300781 20.5 322.601562 19.601562 L 322.601562 14.898438 L 323.300781 14.898438 L 323.300781 21.398438 L 322.601562 21.398438 Z M 322.699219 20.601562 "/>
<path style=" stroke:none;fill-rule:nonzero;fill:rgb(100%,100%,100%);fill-opacity:1;" d="M 325.199219 13 C 325.199219 12.898438 325.199219 12.800781 325.300781 12.699219 C 325.398438 12.601562 325.5 12.601562 325.699219 12.601562 C 325.898438 12.601562 326 12.601562 326.101562 12.699219 C 326.199219 12.800781 326.199219 12.898438 326.199219 13 C 326.199219 13.101562 326.199219 13.199219 326.101562 13.300781 C 326 13.398438 325.898438 13.398438 325.699219 13.398438 C 325.5 13.398438 325.398438 13.398438 325.300781 13.300781 C 325.300781 13.300781 325.199219 13.199219 325.199219 13 Z M 326.101562 21.398438 L 325.398438 21.398438 L 325.398438 14.898438 L 326.101562 14.898438 Z M 326.101562 21.398438 "/>
<path style=" stroke:none;fill-rule:nonzero;fill:rgb(100%,100%,100%);fill-opacity:1;" d="M 328.800781 21.398438 L 328.101562 21.398438 L 328.101562 12.199219 L 328.800781 12.199219 Z M 328.800781 21.398438 "/>
<path style=" stroke:none;fill-rule:nonzero;fill:rgb(100%,100%,100%);fill-opacity:1;" d="M 331.898438 13.199219 L 331.898438 14.898438 L 333.199219 14.898438 L 333.199219 15.5 L 331.898438 15.5 L 331.898438 19.800781 C 331.898438 20.199219 332 20.398438 332.101562 20.601562 C 332.199219 20.800781 332.398438 20.898438 332.800781 20.898438 C 332.898438 20.898438 333.101562 20.898438 333.398438 20.800781 L 333.398438 21.398438 C 333.199219 21.5 333 21.5 332.601562 21.5 C 332.101562 21.5 331.699219 21.398438 331.5 21.101562 C 331.300781 20.800781 331.199219 20.398438 331.199219 19.800781 L 331.199219 15.5 L 330 15.5 L 330 14.898438 L 331.199219 14.898438 L 331.199219 13.199219 Z M 331.898438 13.199219 "/>
<path style=" stroke:none;fill-rule:nonzero;fill:rgb(100%,100%,100%);fill-opacity:1;" d="M 337.300781 18 C 337.300781 17.398438 337.398438 16.800781 337.699219 16.300781 C 337.898438 15.800781 338.300781 15.398438 338.699219 15.101562 C 339.101562 14.800781 339.601562 14.699219 340.199219 14.699219 C 341.101562 14.699219 341.800781 15 342.300781 15.601562 C 342.800781 16.199219 343.101562 17 343.101562 18 L 343.101562 18.199219 C 343.101562 18.800781 343 19.398438 342.699219 19.898438 C 342.5 20.398438 342.101562 20.800781 341.699219 21.101562 C 341.300781 21.398438 340.800781 21.5 340.199219 21.5 C 339.300781 21.5 338.601562 21.199219 338.101562 20.601562 C 337.601562 20 337.300781 19.199219 337.300781 18.199219 Z M 338.101562 18.199219 C 338.101562 19 338.300781 19.601562 338.699219 20.101562 C 339.101562 20.601562 339.601562 20.800781 340.300781 20.800781 C 340.898438 20.800781 341.5 20.601562 341.898438 20.101562 C 342.300781 19.601562 342.5 18.898438 342.5 18.101562 L 342.5 18 C 342.5 17.5 342.398438 17 342.199219 16.601562 C 342 16.199219 341.800781 15.898438 341.398438 15.601562 C 341.101562 15.398438 340.699219 15.300781 340.300781 15.300781 C 339.699219 15.300781 339.101562 15.601562 338.699219 16.101562 C 338.300781 16.601562 338.101562 17.300781 338.101562 18.101562 Z M 338.101562 18.199219 "/>
<path style=" stroke:none;fill-rule:nonzero;fill:rgb(100%,100%,100%);fill-opacity:1;" d="M 345.300781 14.898438 L 345.300781 16 C 345.5 15.601562 345.800781 15.300781 346.199219 15.101562 C 346.601562 14.898438 347 14.800781 347.398438 14.800781 C 348.101562 14.800781 348.601562 15 349 15.398438 C 349.398438 15.800781 349.5 16.398438 349.5 17.199219 L 349.5 21.5 L 348.800781 21.5 L 348.800781 17.199219 C 348.800781 16.601562 348.699219 16.199219 348.398438 15.898438 C 348.101562 15.601562 347.800781 15.5 347.199219 15.5 C 346.800781 15.5 346.398438 15.601562 346 15.898438 C 345.699219 16.199219 345.398438 16.601562 345.199219 17 L 345.199219 21.5 L 344.5 21.5 L 344.5 15 L 345.300781 15 Z M 345.300781 14.898438 "/>
</g>
</svg>
